<?xml version="1.0" encoding="UTF-8" standalone="no"?>
<svg
   id="Layer_1"
   data-name="Layer 1"
   viewBox="0 0 1241.079 461.822"
   version="1.1"
   sodipodi:docname="Flexiown_Logo.svg"
   inkscape:version="1.4 (86a8ad7, 2024-10-11)"
   width="1241.079"
   height="461.82199"
   xmlns:inkscape="http://www.inkscape.org/namespaces/inkscape"
   xmlns:sodipodi="http://sodipodi.sourceforge.net/DTD/sodipodi-0.dtd"
   xmlns="http://www.w3.org/2000/svg"
   xmlns:svg="http://www.w3.org/2000/svg">
  <sodipodi:namedview
     id="namedview18"
     pagecolor="#505050"
     bordercolor="#eeeeee"
     borderopacity="1"
     inkscape:showpageshadow="0"
     inkscape:pageopacity="0"
     inkscape:pagecheckerboard="0"
     inkscape:deskcolor="#d1d1d1"
     inkscape:zoom="1.0770052"
     inkscape:cx="608.1679"
     inkscape:cy="187.09287"
     inkscape:window-width="1920"
     inkscape:window-height="1009"
     inkscape:window-x="1912"
     inkscape:window-y="-8"
     inkscape:window-maximized="1"
     inkscape:current-layer="Layer_1" />
  <defs
     id="defs1">
    <style
       id="style1">
      .cls-1 {
        fill: none;
      }

      .cls-2 {
        fill: #020202;
      }

      .cls-3 {
        fill: #fff;
      }

      .cls-4 {
        fill: #5bbf83;
      }
    </style>
  </defs>
  <g
     id="g8"
     style="display:inline"
     transform="matrix(3.004429,0,0,3.004429,-369.79601,-74.063851)">
    <rect
       class="cls-4"
       x="353.42999"
       y="87"
       width="28.040001"
       height="28.040001"
       rx="14.02"
       ry="14.02"
       id="rect1" />
    <path
       d="M 126.13,133.37 V 67.74 h 42.91 V 79.1 h -29.21 v 15.36 h 26.18 v 10.87 h -26.18 v 28.04 z"
       id="path1" />
    <path
       d="m 196.34,133.37 c -4.84,0 -8.58,-0.58 -11.21,-1.73 -2.63,-1.15 -4.47,-2.94 -5.51,-5.36 -1.04,-2.42 -1.56,-5.58 -1.56,-9.48 V 67.75 h 12.87 v 48.27 c 0,2.5 0.34,4.34 1.02,5.51 0.68,1.17 2.27,1.76 4.78,1.76 h 2.97 v 10.09 h -3.36 z"
       id="path2" />
    <path
       d="m 229.93,134.24 c -5.3,0 -9.75,-0.98 -13.36,-2.95 -3.61,-1.97 -6.34,-4.8 -8.19,-8.51 -1.85,-3.71 -2.78,-8.16 -2.78,-13.36 0,-5.2 0.9,-9.38 2.71,-13.02 1.8,-3.64 4.45,-6.44 7.95,-8.41 3.49,-1.97 7.79,-2.95 12.9,-2.95 7.09,0 12.68,2.07 16.8,6.22 4.11,4.14 6.17,10.05 6.17,17.72 0,0.39 -0.02,0.92 -0.05,1.58 -0.03,0.67 -0.08,1.18 -0.15,1.54 h -33.4 c 0.06,2.24 0.48,4.34 1.24,6.29 0.76,1.95 1.97,3.52 3.63,4.71 1.66,1.19 3.84,1.78 6.53,1.78 2.69,0 5.04,-0.61 6.73,-1.83 1.69,-1.22 2.55,-3.03 2.58,-5.44 h 12.73 c -0.16,3.71 -1.18,6.79 -3.05,9.26 -1.87,2.47 -4.42,4.32 -7.65,5.53 -3.23,1.22 -7.01,1.83 -11.34,1.83 z m -11.26,-30.32 h 20.62 c -0.1,-3.32 -1.08,-5.79 -2.95,-7.44 -1.87,-1.64 -4.27,-2.46 -7.19,-2.46 -2.92,0 -5.44,0.85 -7.34,2.54 -1.9,1.69 -2.95,4.14 -3.14,7.36 z"
       id="path3" />
    <path
       d="m 255.29,133.37 18.43,-27.4 5.31,-3.27 10.14,-16.92 h 13.8 l -17.07,25.6 -4.97,3.17 -11.9,18.82 h -13.75 z m 35.35,0 -11.95,-18.82 -4.58,-3.02 -17.21,-25.74 h 13.8 l 10.24,16.87 4.88,3.17 18.63,27.55 h -13.8 z"
       id="path4" />
    <path
       d="M 420.48,133.37 405.51,85.78 h 13.12 l 9.17,33.59 9.17,-33.59 h 13.55 l 9.36,33.54 9.02,-33.54 h 12.24 l -14.97,47.59 h -13.21 l -9.61,-34.23 -9.7,34.23 h -13.16 z"
       id="path5" />
    <path
       d="M 488.25,133.37 V 85.78 h 12.43 l 0.24,7.12 c 1.59,-2.05 3.69,-3.86 6.29,-5.44 2.6,-1.58 5.98,-2.36 10.14,-2.36 4.84,0 8.6,1.47 11.26,4.41 2.66,2.94 4,7.24 4,12.9 v 30.96 h -12.82 v -29.3 c 0,-1.72 -0.24,-3.23 -0.73,-4.53 -0.49,-1.3 -1.26,-2.31 -2.32,-3.02 -1.06,-0.71 -2.45,-1.07 -4.17,-1.07 -2.57,0 -4.77,0.6 -6.61,1.8 -1.84,1.2 -3.44,2.67 -4.8,4.39 v 31.74 h -12.92 z"
       id="path6" />
    <path
       d="m 367.45,134.46 c -18.44,0 -33.45,-15 -33.45,-33.45 0,-18.45 15,-33.45 33.45,-33.45 18.45,0 33.45,15 33.45,33.45 0,18.45 -15,33.45 -33.45,33.45 z m 0,-56.03 c -12.46,0 -22.59,10.13 -22.59,22.59 0,12.46 10.13,22.59 22.59,22.59 12.46,0 22.59,-10.13 22.59,-22.59 0,-12.46 -10.13,-22.59 -22.59,-22.59 z"
       id="path7" />
    <rect
       x="314.66"
       y="86.190002"
       width="12.88"
       height="47.720001"
       id="rect7" />
    <rect
       class="cls-4"
       x="314.66"
       y="67.489998"
       width="12.79"
       height="12.79"
       rx="6.3899999"
       ry="6.3899999"
       id="rect8" />
  </g>
  <rect
     class="cls-1"
     width="1241.079"
     height="461.82199"
     id="rect9"
     x="0"
     y="0"
     style="display:inline;stroke-width:2.15829" />
</svg>
